<?xml version="1.0" standalone="no"?>
<!DOCTYPE svg PUBLIC "-//W3C//DTD SVG 20010904//EN"
 "http://www.w3.org/TR/2001/REC-SVG-20010904/DTD/svg10.dtd">
<svg version="1.0" xmlns="http://www.w3.org/2000/svg"
 width="700.000000pt" height="700.000000pt" viewBox="0 0 700.000000 700.000000"
 preserveAspectRatio="xMidYMid meet">
<metadata>
Created by potrace 1.11, written by Peter Selinger 2001-2013
</metadata>
<g transform="translate(0.000000,700.000000) scale(0.100000,-0.100000)"
fill="#000000" stroke="none">
<path d="M960 6783 c-14 -1 -97 -4 -185 -5 -158 -3 -161 -4 -225 -35 -84 -42
-138 -95 -181 -179 -32 -63 -34 -74 -34 -163 0 -86 3 -103 31 -161 46 -98 121
-166 220 -201 45 -16 88 -21 198 -23 156 -4 195 -14 246 -66 106 -108 68 -296
-71 -354 -28 -12 -88 -15 -270 -17 -253 -2 -309 -10 -387 -55 -69 -41 -159
-141 -166 -186 -1 -7 -5 -19 -10 -26 -5 -8 -11 -47 -13 -87 -10 -151 60 -283
191 -360 85 -49 119 -53 575 -53 232 0 425 -2 428 -6 6 -6 8 -424 2 -431 -2
-3 -200 -201 -439 -440 l-434 -436 54 -52 55 -52 -127 -6 c-121 -5 -130 -7
-202 -42 -145 -72 -219 -197 -212 -358 4 -94 40 -178 103 -243 90 -93 160
-117 349 -120 122 -2 147 -6 187 -25 129 -63 161 -243 60 -345 -43 -44 -98
-63 -198 -69 -49 -3 -104 -10 -120 -15 -206 -63 -322 -284 -254 -484 39 -116
110 -190 229 -239 51 -21 72 -23 303 -25 269 -3 298 -8 353 -57 50 -44 74 -96
74 -163 0 -64 -19 -110 -64 -155 -51 -51 -87 -61 -234 -64 -148 -4 -212 -18
-285 -65 -123 -78 -183 -196 -175 -341 8 -141 94 -265 226 -327 l57 -27 2830
0 2830 0 65 32 c83 41 142 100 183 182 30 61 32 73 32 166 -1 89 -4 106 -28
155 -51 101 -138 178 -231 205 -28 8 -93 17 -145 20 -124 7 -176 36 -220 122
-55 109 -6 244 107 295 39 18 67 19 315 19 150 0 297 5 327 11 126 24 230 103
284 217 28 59 31 76 31 156 -1 80 -4 98 -32 157 -35 75 -102 147 -167 180 -87
45 -113 47 -618 46 -264 0 -482 2 -484 5 -3 3 -6 101 -6 219 l0 213 438 437
437 437 -51 52 c-29 29 -51 53 -49 54 1 2 31 5 67 8 150 14 262 91 327 226 24
49 27 68 28 151 0 83 -3 102 -27 153 -34 71 -65 111 -128 158 -64 48 -131 69
-238 73 -103 5 -146 20 -195 71 -83 86 -82 218 3 303 51 51 92 61 260 66 157
5 188 13 268 66 99 67 158 166 168 284 14 171 -79 318 -246 387 -52 22 -70 23
-355 26 -166 2 -317 8 -338 14 -20 5 -53 24 -73 41 -96 85 -102 228 -12 318
45 45 88 61 181 65 136 7 239 51 317 136 80 88 111 231 77 350 -27 92 -85 169
-166 221 -100 63 105 58 -2772 61 -1443 1 -2635 1 -2649 0z"/>
</g>
</svg>
